<svg class="railroad-diagram" height="80" viewBox="0 0 515.5 80" width="515.5" xmlns="http://www.w3.org/2000/svg" xmlns:xlink="http://www.w3.org/1999/xlink">
<style>/* <![CDATA[ */
	svg.railroad-diagram {
		background-color:hsl(30,20%,95%);
	}
	svg.railroad-diagram path {
		stroke-width:3;
		stroke:black;
		fill:rgba(0,0,0,0);
	}
	svg.railroad-diagram text {
		font:bold 14px monospace;
		text-anchor:middle;
	}
	svg.railroad-diagram text.label{
		text-anchor:start;
	}
	svg.railroad-diagram text.comment{
		font:italic 12px monospace;
	}
	svg.railroad-diagram rect{
		stroke-width:3;
		stroke:black;
		fill:hsl(120,100%,90%);
	}
	svg.railroad-diagram rect.group-box {
		stroke: gray;
		stroke-dasharray: 10 5;
		fill: none;
	}

/* ]]> */
</style><g transform="translate(.5 .5)">
<g>
<path d="M20 30v20m10 -20v20m-10 -10h20" /></g><path d="M40 40h10" /><g class="terminal ">
<path d="M50 40h0.0" /><path d="M87.0 40h0.0" /><rect height="22" rx="10" ry="10" width="37" x="50" y="29"></rect><text x="68.5" y="44">ID</text></g><path d="M87.0 40h10" /><g>
<path d="M97.0 40h0.0" /><path d="M276.5 40h0.0" /><path d="M97.0 40a10 10 0 0 0 10 -10v0a10 10 0 0 1 10 -10" /><g>
<path d="M117.0 20h139.5" /></g><path d="M256.5 20a10 10 0 0 1 10 10v0a10 10 0 0 0 10 10" /><path d="M97.0 40h20" /><g>
<path d="M117.0 40h0.0" /><path d="M256.5 40h0.0" /><path d="M117.0 40h10" /><g>
<path d="M127.0 40h0.0" /><path d="M246.5 40h0.0" /><g class="terminal ">
<path d="M127.0 40h0.0" /><path d="M189.5 40h0.0" /><rect height="22" rx="10" ry="10" width="62.5" x="127" y="29"></rect><text x="158.25" y="44">COMMA</text></g><path d="M189.5 40h10" /><path d="M199.5 40h10" /><g class="terminal ">
<path d="M209.5 40h0.0" /><path d="M246.5 40h0.0" /><rect height="22" rx="10" ry="10" width="37" x="209.5" y="29"></rect><text x="228" y="44">ID</text></g></g><path d="M246.5 40h10" /><path d="M127.0 40a10 10 0 0 0 -10 10v0a10 10 0 0 0 10 10" /><g>
<path d="M127.0 60h119.5" /></g><path d="M246.5 60a10 10 0 0 0 10 -10v0a10 10 0 0 0 -10 -10" /></g><path d="M256.5 40h20" /></g><path d="M276.5 40h10" /><g class="terminal ">
<path d="M286.5 40h0.0" /><path d="M349.0 40h0.0" /><rect height="22" rx="10" ry="10" width="62.5" x="286.5" y="29"></rect><text x="317.75" y="44">COLON</text></g><path d="M349.0 40h10" /><path d="M359.0 40h10" /><g class="non-terminal ">
<path d="M369.0 40h0.0" /><path d="M465.5 40h0.0" /><rect height="22" width="96.5" x="369" y="29"></rect><text x="417.25" y="44">type_spec</text></g><path d="M465.5 40h10" /><path d="M 475.5 40 h 20 m -10 -10 v 20 m 10 -20 v 20"></path></g></svg>
