<svg class="railroad-diagram" height="80" viewBox="0 0 469.5 80" width="469.5" xmlns="http://www.w3.org/2000/svg" xmlns:xlink="http://www.w3.org/1999/xlink">
<style>/* <![CDATA[ */
	svg.railroad-diagram {
		background-color:hsl(30,20%,95%);
	}
	svg.railroad-diagram path {
		stroke-width:3;
		stroke:black;
		fill:rgba(0,0,0,0);
	}
	svg.railroad-diagram text {
		font:bold 14px monospace;
		text-anchor:middle;
	}
	svg.railroad-diagram text.label{
		text-anchor:start;
	}
	svg.railroad-diagram text.comment{
		font:italic 12px monospace;
	}
	svg.railroad-diagram rect{
		stroke-width:3;
		stroke:black;
		fill:hsl(120,100%,90%);
	}
	svg.railroad-diagram rect.group-box {
		stroke: gray;
		stroke-dasharray: 10 5;
		fill: none;
	}

/* ]]> */
</style><g transform="translate(.5 .5)">
<g>
<path d="M20 30v20m10 -20v20m-10 -10h20" /></g><g>
<path d="M40 40h0.0" /><path d="M429.5 40h0.0" /><path d="M40.0 40a10 10 0 0 0 10 -10v0a10 10 0 0 1 10 -10" /><g>
<path d="M60.0 20h349.5" /></g><path d="M409.5 20a10 10 0 0 1 10 10v0a10 10 0 0 0 10 10" /><path d="M40.0 40h20" /><g>
<path d="M60.0 40h0.0" /><path d="M409.5 40h0.0" /><g class="terminal ">
<path d="M60.0 40h0.0" /><path d="M105.5 40h0.0" /><rect height="22" rx="10" ry="10" width="45.5" x="60" y="29"></rect><text x="82.75" y="44">VAR</text></g><path d="M105.5 40h10" /><path d="M115.5 40h10" /><g>
<path d="M125.5 40h0.0" /><path d="M409.5 40h0.0" /><path d="M125.5 40h10" /><g>
<path d="M135.5 40h0.0" /><path d="M399.5 40h0.0" /><g class="non-terminal ">
<path d="M135.5 40h0.0" /><path d="M325.5 40h0.0" /><rect height="22" width="190" x="135.5" y="29"></rect><text x="230.5" y="44">variable_declaration</text></g><path d="M325.5 40h10" /><path d="M335.5 40h10" /><g class="terminal ">
<path d="M345.5 40h0.0" /><path d="M399.5 40h0.0" /><rect height="22" rx="10" ry="10" width="54" x="345.5" y="29"></rect><text x="372.5" y="44">SEMI</text></g></g><path d="M399.5 40h10" /><path d="M135.5 40a10 10 0 0 0 -10 10v0a10 10 0 0 0 10 10" /><g>
<path d="M135.5 60h264.0" /></g><path d="M399.5 60a10 10 0 0 0 10 -10v0a10 10 0 0 0 -10 -10" /></g></g><path d="M409.5 40h20" /></g><path d="M 429.5 40 h 20 m -10 -10 v 20 m 10 -20 v 20"></path></g></svg>
