<svg class="railroad-diagram" height="62" viewBox="0 0 509.5 62" width="509.5" xmlns="http://www.w3.org/2000/svg" xmlns:xlink="http://www.w3.org/1999/xlink">
<style>/* <![CDATA[ */
	svg.railroad-diagram {
		background-color:hsl(30,20%,95%);
	}
	svg.railroad-diagram path {
		stroke-width:3;
		stroke:black;
		fill:rgba(0,0,0,0);
	}
	svg.railroad-diagram text {
		font:bold 14px monospace;
		text-anchor:middle;
	}
	svg.railroad-diagram text.label{
		text-anchor:start;
	}
	svg.railroad-diagram text.comment{
		font:italic 12px monospace;
	}
	svg.railroad-diagram rect{
		stroke-width:3;
		stroke:black;
		fill:hsl(120,100%,90%);
	}
	svg.railroad-diagram rect.group-box {
		stroke: gray;
		stroke-dasharray: 10 5;
		fill: none;
	}

/* ]]> */
</style><g transform="translate(.5 .5)">
<g>
<path d="M20 21v20m10 -20v20m-10 -10h20" /></g><path d="M40 31h10" /><g class="terminal ">
<path d="M50 31h0.0" /><path d="M129.5 31h0.0" /><rect height="22" rx="10" ry="10" width="79.5" x="50" y="20"></rect><text x="89.75" y="35">PROGRAM</text></g><path d="M129.5 31h10" /><path d="M139.5 31h10" /><g class="non-terminal ">
<path d="M149.5 31h0.0" /><path d="M237.5 31h0.0" /><rect height="22" width="88" x="149.5" y="20"></rect><text x="193.5" y="35">variable</text></g><path d="M237.5 31h10" /><path d="M247.5 31h10" /><g class="terminal ">
<path d="M257.5 31h0.0" /><path d="M311.5 31h0.0" /><rect height="22" rx="10" ry="10" width="54" x="257.5" y="20"></rect><text x="284.5" y="35">SEMI</text></g><path d="M311.5 31h10" /><path d="M321.5 31h10" /><g class="non-terminal ">
<path d="M331.5 31h0.0" /><path d="M394.0 31h0.0" /><rect height="22" width="62.5" x="331.5" y="20"></rect><text x="362.75" y="35">block</text></g><path d="M394.0 31h10" /><path d="M404.0 31h10" /><g class="terminal ">
<path d="M414.0 31h0.0" /><path d="M459.5 31h0.0" /><rect height="22" rx="10" ry="10" width="45.5" x="414" y="20"></rect><text x="436.75" y="35">DOT</text></g><path d="M459.5 31h10" /><path d="M 469.5 31 h 20 m -10 -10 v 20 m 10 -20 v 20"></path></g></svg>
