<svg class="railroad-diagram" height="101" viewBox="0 0 395.5 101" width="395.5" xmlns="http://www.w3.org/2000/svg" xmlns:xlink="http://www.w3.org/1999/xlink">
<style>/* <![CDATA[ */
	svg.railroad-diagram {
		background-color:hsl(30,20%,95%);
	}
	svg.railroad-diagram path {
		stroke-width:3;
		stroke:black;
		fill:rgba(0,0,0,0);
	}
	svg.railroad-diagram text {
		font:bold 14px monospace;
		text-anchor:middle;
	}
	svg.railroad-diagram text.label{
		text-anchor:start;
	}
	svg.railroad-diagram text.comment{
		font:italic 12px monospace;
	}
	svg.railroad-diagram rect{
		stroke-width:3;
		stroke:black;
		fill:hsl(120,100%,90%);
	}
	svg.railroad-diagram rect.group-box {
		stroke: gray;
		stroke-dasharray: 10 5;
		fill: none;
	}

/* ]]> */
</style><g transform="translate(.5 .5)">
<g>
<path d="M20 30v20m10 -20v20m-10 -10h20" /></g><path d="M40 40h10" /><g class="non-terminal ">
<path d="M50 40h0.0" /><path d="M146.5 40h0.0" /><rect height="22" width="96.5" x="50" y="29"></rect><text x="98.25" y="44">statement</text></g><path d="M146.5 40h10" /><g>
<path d="M156.5 40h0.0" /><path d="M355.5 40h0.0" /><path d="M156.5 40a10 10 0 0 0 10 -10v0a10 10 0 0 1 10 -10" /><g>
<path d="M176.5 20h159.0" /></g><path d="M335.5 20a10 10 0 0 1 10 10v0a10 10 0 0 0 10 10" /><path d="M156.5 40h20" /><g>
<path d="M176.5 40h0.0" /><path d="M335.5 40h0.0" /><path d="M176.5 40h10" /><g class="terminal ">
<path d="M186.5 40h21.25" /><path d="M304.25 40h21.25" /><rect height="22" rx="10" ry="10" width="96.5" x="207.75" y="29"></rect><text x="256" y="44">semicolon</text></g><path d="M325.5 40h10" /><path d="M186.5 40a10 10 0 0 0 -10 10v10a10 10 0 0 0 10 10" /><g class="non-terminal ">
<path d="M186.5 70h0.0" /><path d="M325.5 70h0.0" /><rect height="22" width="139" x="186.5" y="59"></rect><text x="256" y="74">statement_list</text></g><path d="M325.5 70a10 10 0 0 0 10 -10v-10a10 10 0 0 0 -10 -10" /></g><path d="M335.5 40h20" /></g><path d="M 355.5 40 h 20 m -10 -10 v 20 m 10 -20 v 20"></path></g></svg>
