<svg class="railroad-diagram" height="161" viewBox="0 0 356.0 161" width="356.0" xmlns="http://www.w3.org/2000/svg" xmlns:xlink="http://www.w3.org/1999/xlink">
<style>/* <![CDATA[ */
	svg.railroad-diagram {
		background-color:hsl(30,20%,95%);
	}
	svg.railroad-diagram path {
		stroke-width:3;
		stroke:black;
		fill:rgba(0,0,0,0);
	}
	svg.railroad-diagram text {
		font:bold 14px monospace;
		text-anchor:middle;
	}
	svg.railroad-diagram text.label{
		text-anchor:start;
	}
	svg.railroad-diagram text.comment{
		font:italic 12px monospace;
	}
	svg.railroad-diagram rect{
		stroke-width:3;
		stroke:black;
		fill:hsl(120,100%,90%);
	}
	svg.railroad-diagram rect.group-box {
		stroke: gray;
		stroke-dasharray: 10 5;
		fill: none;
	}

/* ]]> */
</style><g transform="translate(.5 .5)">
<g>
<path d="M20 30v20m10 -20v20m-10 -10h20" /></g><g>
<path d="M40 40h0.0" /><path d="M316.0 40h0.0" /><path d="M40.0 40h20" /><g>
<path d="M60.0 40h6.25" /><path d="M289.75 40h6.25" /><g>
<path d="M66.25 40h0.0" /><path d="M208.75 40h0.0" /><path d="M66.25 40a10 10 0 0 0 10 -10v0a10 10 0 0 1 10 -10" /><g>
<path d="M86.25 20h102.5" /></g><path d="M188.75 20a10 10 0 0 1 10 10v0a10 10 0 0 0 10 10" /><path d="M66.25 40h20" /><g>
<path d="M86.25 40h0.0" /><path d="M188.75 40h0.0" /><path d="M86.25 40h20" /><g class="terminal ">
<path d="M106.25 40h4.25" /><path d="M164.5 40h4.25" /><rect height="22" rx="10" ry="10" width="54" x="110.5" y="29"></rect><text x="137.5" y="44">plus</text></g><path d="M168.75 40h20" /><path d="M86.25 40a10 10 0 0 1 10 10v10a10 10 0 0 0 10 10" /><g class="terminal ">
<path d="M106.25 70h0.0" /><path d="M168.75 70h0.0" /><rect height="22" rx="10" ry="10" width="62.5" x="106.25" y="59"></rect><text x="137.5" y="74">minus</text></g><path d="M168.75 70a10 10 0 0 0 10 -10v-10a10 10 0 0 1 10 -10" /></g><path d="M188.75 40h20" /></g><path d="M208.75 40h10" /><g class="non-terminal ">
<path d="M218.75 40h0.0" /><path d="M289.75 40h0.0" /><rect height="22" width="71" x="218.75" y="29"></rect><text x="254.25" y="44">factor</text></g></g><path d="M296.0 40h20" /><path d="M40.0 40a10 10 0 0 1 10 10v40a10 10 0 0 0 10 10" /><g class="non-terminal ">
<path d="M60.0 100h78.25" /><path d="M217.75 100h78.25" /><rect height="22" width="79.5" x="138.25" y="89"></rect><text x="178" y="104">integer</text></g><path d="M296.0 100a10 10 0 0 0 10 -10v-40a10 10 0 0 1 10 -10" /><path d="M40.0 40a10 10 0 0 1 10 10v70a10 10 0 0 0 10 10" /><g>
<path d="M60.0 130h0.0" /><path d="M296.0 130h0.0" /><g class="terminal ">
<path d="M60.0 130h0.0" /><path d="M131.0 130h0.0" /><rect height="22" rx="10" ry="10" width="71" x="60" y="119"></rect><text x="95.5" y="134">lparen</text></g><path d="M131.0 130h10" /><path d="M141.0 130h10" /><g class="non-terminal ">
<path d="M151.0 130h0.0" /><path d="M205.0 130h0.0" /><rect height="22" width="54" x="151" y="119"></rect><text x="178" y="134">expr</text></g><path d="M205.0 130h10" /><path d="M215.0 130h10" /><g class="terminal ">
<path d="M225.0 130h0.0" /><path d="M296.0 130h0.0" /><rect height="22" rx="10" ry="10" width="71" x="225" y="119"></rect><text x="260.5" y="134">rparen</text></g></g><path d="M296.0 130a10 10 0 0 0 10 -10v-70a10 10 0 0 1 10 -10" /></g><path d="M 316.0 40 h 20 m -10 -10 v 20 m 10 -20 v 20"></path></g></svg>
