<svg class="railroad-diagram" height="62" viewBox="0 0 353.0 62" width="353.0" xmlns="http://www.w3.org/2000/svg" xmlns:xlink="http://www.w3.org/1999/xlink">
<style>/* <![CDATA[ */
	svg.railroad-diagram {
		background-color:hsl(30,20%,95%);
	}
	svg.railroad-diagram path {
		stroke-width:3;
		stroke:black;
		fill:rgba(0,0,0,0);
	}
	svg.railroad-diagram text {
		font:bold 14px monospace;
		text-anchor:middle;
	}
	svg.railroad-diagram text.label{
		text-anchor:start;
	}
	svg.railroad-diagram text.comment{
		font:italic 12px monospace;
	}
	svg.railroad-diagram rect{
		stroke-width:3;
		stroke:black;
		fill:hsl(120,100%,90%);
	}
	svg.railroad-diagram rect.group-box {
		stroke: gray;
		stroke-dasharray: 10 5;
		fill: none;
	}

/* ]]> */
</style><g transform="translate(.5 .5)">
<g>
<path d="M20 21v20m10 -20v20m-10 -10h20" /></g><path d="M40 31h10" /><g class="non-terminal ">
<path d="M50 31h0.0" /><path d="M138.0 31h0.0" /><rect height="22" width="88" x="50" y="20"></rect><text x="94" y="35">variable</text></g><path d="M138.0 31h10" /><path d="M148.0 31h10" /><g class="terminal ">
<path d="M158.0 31h0.0" /><path d="M229.0 31h0.0" /><rect height="22" rx="10" ry="10" width="71" x="158" y="20"></rect><text x="193.5" y="35">assign</text></g><path d="M229.0 31h10" /><path d="M239.0 31h10" /><g class="non-terminal ">
<path d="M249.0 31h0.0" /><path d="M303.0 31h0.0" /><rect height="22" width="54" x="249" y="20"></rect><text x="276" y="35">expr</text></g><path d="M303.0 31h10" /><path d="M 313.0 31 h 20 m -10 -10 v 20 m 10 -20 v 20"></path></g></svg>
