<svg class="railroad-diagram" height="149" viewBox="0 0 564.0 149" width="564.0" xmlns="http://www.w3.org/2000/svg" xmlns:xlink="http://www.w3.org/1999/xlink">
<style>/* <![CDATA[ */
	svg.railroad-diagram {
		background-color:hsl(30,20%,95%);
	}
	svg.railroad-diagram path {
		stroke-width:3;
		stroke:black;
		fill:rgba(0,0,0,0);
	}
	svg.railroad-diagram text {
		font:bold 14px monospace;
		text-anchor:middle;
	}
	svg.railroad-diagram text.label{
		text-anchor:start;
	}
	svg.railroad-diagram text.comment{
		font:italic 12px monospace;
	}
	svg.railroad-diagram rect{
		stroke-width:3;
		stroke:black;
		fill:hsl(120,100%,90%);
	}
	svg.railroad-diagram rect.group-box {
		stroke: gray;
		stroke-dasharray: 10 5;
		fill: none;
	}

/* ]]> */
</style><g transform="translate(.5 .5)">
<g>
<path d="M20 21v20m10 -20v20m-10 -10h20" /></g><g>
<path d="M40 31h0.0" /><path d="M524.0 31h0.0" /><path d="M40.0 31h20" /><g>
<path d="M60.0 31h47.25" /><path d="M456.75 31h47.25" /><g class="terminal ">
<path d="M107.25 31h0.0" /><path d="M152.75 31h0.0" /><rect height="22" rx="10" ry="10" width="45.5" x="107.25" y="20"></rect><text x="130" y="35">VAR</text></g><path d="M152.75 31h10" /><path d="M162.75 31h10" /><g>
<path d="M172.75 31h0.0" /><path d="M456.75 31h0.0" /><path d="M172.75 31h10" /><g>
<path d="M182.75 31h0.0" /><path d="M446.75 31h0.0" /><g class="non-terminal ">
<path d="M182.75 31h0.0" /><path d="M372.75 31h0.0" /><rect height="22" width="190" x="182.75" y="20"></rect><text x="277.75" y="35">variable_declaration</text></g><path d="M372.75 31h10" /><path d="M382.75 31h10" /><g class="terminal ">
<path d="M392.75 31h0.0" /><path d="M446.75 31h0.0" /><rect height="22" rx="10" ry="10" width="54" x="392.75" y="20"></rect><text x="419.75" y="35">SEMI</text></g></g><path d="M446.75 31h10" /><path d="M182.75 31a10 10 0 0 0 -10 10v0a10 10 0 0 0 10 10" /><g>
<path d="M182.75 51h264.0" /></g><path d="M446.75 51a10 10 0 0 0 10 -10v0a10 10 0 0 0 -10 -10" /></g></g><path d="M504.0 31h20" /><path d="M40.0 31a10 10 0 0 1 10 10v28a10 10 0 0 0 10 10" /><g>
<path d="M60.0 79h0.0" /><path d="M504.0 79h0.0" /><g>
<path d="M60.0 79h0.0" /><path d="M504.0 79h0.0" /><path d="M60.0 79a10 10 0 0 0 10 -10v0a10 10 0 0 1 10 -10" /><g>
<path d="M80.0 59h404.0" /></g><path d="M484.0 59a10 10 0 0 1 10 10v0a10 10 0 0 0 10 10" /><path d="M60.0 79h20" /><g>
<path d="M80.0 79h0.0" /><path d="M484.0 79h0.0" /><path d="M80.0 79h10" /><g>
<path d="M90.0 79h0.0" /><path d="M474.0 79h0.0" /><g class="terminal ">
<path d="M90.0 79h0.0" /><path d="M186.5 79h0.0" /><rect height="22" rx="10" ry="10" width="96.5" x="90" y="68"></rect><text x="138.25" y="83">PROCEDURE</text></g><path d="M186.5 79h10" /><path d="M196.5 79h10" /><g class="terminal ">
<path d="M206.5 79h0.0" /><path d="M243.5 79h0.0" /><rect height="22" rx="10" ry="10" width="37" x="206.5" y="68"></rect><text x="225" y="83">ID</text></g><path d="M243.5 79h10" /><path d="M253.5 79h10" /><g class="terminal ">
<path d="M263.5 79h0.0" /><path d="M317.5 79h0.0" /><rect height="22" rx="10" ry="10" width="54" x="263.5" y="68"></rect><text x="290.5" y="83">SEMI</text></g><path d="M317.5 79h10" /><path d="M327.5 79h10" /><g class="non-terminal ">
<path d="M337.5 79h0.0" /><path d="M400.0 79h0.0" /><rect height="22" width="62.5" x="337.5" y="68"></rect><text x="368.75" y="83">block</text></g><path d="M400.0 79h10" /><path d="M410.0 79h10" /><g class="terminal ">
<path d="M420.0 79h0.0" /><path d="M474.0 79h0.0" /><rect height="22" rx="10" ry="10" width="54" x="420" y="68"></rect><text x="447" y="83">SEMI</text></g></g><path d="M474.0 79h10" /><path d="M90.0 79a10 10 0 0 0 -10 10v0a10 10 0 0 0 10 10" /><g>
<path d="M90.0 99h384.0" /></g><path d="M474.0 99a10 10 0 0 0 10 -10v0a10 10 0 0 0 -10 -10" /></g><path d="M484.0 79h20" /></g></g><path d="M504.0 79a10 10 0 0 0 10 -10v-28a10 10 0 0 1 10 -10" /><path d="M40.0 31a10 10 0 0 1 10 10v67a10 10 0 0 0 10 10" /><g class="non-terminal ">
<path d="M60.0 118h190.75" /><path d="M313.25 118h190.75" /><rect height="22" width="62.5" x="250.75" y="107"></rect><text x="282" y="122">empty</text></g><path d="M504.0 118a10 10 0 0 0 10 -10v-67a10 10 0 0 1 10 -10" /></g><path d="M 524.0 31 h 20 m -10 -10 v 20 m 10 -20 v 20"></path></g></svg>
