<svg class="railroad-diagram" height="152" viewBox="0 0 344.0 152" width="344.0" xmlns="http://www.w3.org/2000/svg" xmlns:xlink="http://www.w3.org/1999/xlink">
<style>/* <![CDATA[ */
	svg.railroad-diagram {
		background-color:hsl(30,20%,95%);
	}
	svg.railroad-diagram path {
		stroke-width:3;
		stroke:black;
		fill:rgba(0,0,0,0);
	}
	svg.railroad-diagram text {
		font:bold 14px monospace;
		text-anchor:middle;
	}
	svg.railroad-diagram text.label{
		text-anchor:start;
	}
	svg.railroad-diagram text.comment{
		font:italic 12px monospace;
	}
	svg.railroad-diagram rect{
		stroke-width:3;
		stroke:black;
		fill:hsl(120,100%,90%);
	}
	svg.railroad-diagram rect.group-box {
		stroke: gray;
		stroke-dasharray: 10 5;
		fill: none;
	}

/* ]]> */
</style><g transform="translate(.5 .5)">
<g>
<path d="M20 21v20m10 -20v20m-10 -10h20" /></g><g>
<path d="M40 31h0.0" /><path d="M304.0 31h0.0" /><path d="M40.0 31h20" /><g class="non-terminal ">
<path d="M60.0 31h25.5" /><path d="M258.5 31h25.5" /><rect height="22" width="173" x="85.5" y="20"></rect><text x="172" y="35">compound_statement</text></g><path d="M284.0 31h20" /><path d="M40.0 31a10 10 0 0 1 10 10v10a10 10 0 0 0 10 10" /><g class="non-terminal ">
<path d="M60.0 61h0.0" /><path d="M284.0 61h0.0" /><rect height="22" width="224" x="60" y="50"></rect><text x="172" y="65">procedure_call_statement</text></g><path d="M284.0 61a10 10 0 0 0 10 -10v-10a10 10 0 0 1 10 -10" /><path d="M40.0 31a10 10 0 0 1 10 10v40a10 10 0 0 0 10 10" /><g class="non-terminal ">
<path d="M60.0 91h17.0" /><path d="M267.0 91h17.0" /><rect height="22" width="190" x="77" y="80"></rect><text x="172" y="95">assignment_statement</text></g><path d="M284.0 91a10 10 0 0 0 10 -10v-40a10 10 0 0 1 10 -10" /><path d="M40.0 31a10 10 0 0 1 10 10v70a10 10 0 0 0 10 10" /><g class="non-terminal ">
<path d="M60.0 121h80.75" /><path d="M203.25 121h80.75" /><rect height="22" width="62.5" x="140.75" y="110"></rect><text x="172" y="125">empty</text></g><path d="M284.0 121a10 10 0 0 0 10 -10v-70a10 10 0 0 1 10 -10" /></g><path d="M 304.0 31 h 20 m -10 -10 v 20 m 10 -20 v 20"></path></g></svg>
