<svg class="railroad-diagram" height="109" viewBox="0 0 380.5 109" width="380.5" xmlns="http://www.w3.org/2000/svg" xmlns:xlink="http://www.w3.org/1999/xlink">
<style>/* <![CDATA[ */
	svg.railroad-diagram {
		background-color:hsl(30,20%,95%);
	}
	svg.railroad-diagram path {
		stroke-width:3;
		stroke:black;
		fill:rgba(0,0,0,0);
	}
	svg.railroad-diagram text {
		font:bold 14px monospace;
		text-anchor:middle;
	}
	svg.railroad-diagram text.label{
		text-anchor:start;
	}
	svg.railroad-diagram text.comment{
		font:italic 12px monospace;
	}
	svg.railroad-diagram rect{
		stroke-width:3;
		stroke:black;
		fill:hsl(120,100%,90%);
	}
	svg.railroad-diagram rect.group-box {
		stroke: gray;
		stroke-dasharray: 10 5;
		fill: none;
	}

/* ]]> */
</style><g transform="translate(.5 .5)">
<g>
<path d="M20 30v20m10 -20v20m-10 -10h20" /></g><path d="M40 40h10" /><g class="non-terminal ">
<path d="M50 40h0.0" /><path d="M104.0 40h0.0" /><rect height="22" width="54" x="50" y="29"></rect><text x="77" y="44">term</text></g><path d="M104.0 40h10" /><g>
<path d="M114.0 40h0.0" /><path d="M340.5 40h0.0" /><path d="M114.0 40a10 10 0 0 0 10 -10v0a10 10 0 0 1 10 -10" /><g>
<path d="M134.0 20h186.5" /></g><path d="M320.5 20a10 10 0 0 1 10 10v0a10 10 0 0 0 10 10" /><path d="M114.0 40h20" /><g>
<path d="M134.0 40h0.0" /><path d="M320.5 40h0.0" /><path d="M134.0 40h10" /><g>
<path d="M144.0 40h0.0" /><path d="M310.5 40h0.0" /><g>
<path d="M144.0 40h0.0" /><path d="M246.5 40h0.0" /><path d="M144.0 40h20" /><g class="terminal ">
<path d="M164.0 40h4.25" /><path d="M222.25 40h4.25" /><rect height="22" rx="10" ry="10" width="54" x="168.25" y="29"></rect><text x="195.25" y="44">plus</text></g><path d="M226.5 40h20" /><path d="M144.0 40a10 10 0 0 1 10 10v10a10 10 0 0 0 10 10" /><g class="terminal ">
<path d="M164.0 70h0.0" /><path d="M226.5 70h0.0" /><rect height="22" rx="10" ry="10" width="62.5" x="164" y="59"></rect><text x="195.25" y="74">minus</text></g><path d="M226.5 70a10 10 0 0 0 10 -10v-10a10 10 0 0 1 10 -10" /></g><path d="M246.5 40h10" /><g class="non-terminal ">
<path d="M256.5 40h0.0" /><path d="M310.5 40h0.0" /><rect height="22" width="54" x="256.5" y="29"></rect><text x="283.5" y="44">term</text></g></g><path d="M310.5 40h10" /><path d="M144.0 40a10 10 0 0 0 -10 10v29a10 10 0 0 0 10 10" /><g>
<path d="M144.0 89h166.5" /></g><path d="M310.5 89a10 10 0 0 0 10 -10v-29a10 10 0 0 0 -10 -10" /></g><path d="M320.5 40h20" /></g><path d="M 340.5 40 h 20 m -10 -10 v 20 m 10 -20 v 20"></path></g></svg>
