<svg class="railroad-diagram" height="212" viewBox="0 0 407.0 212" width="407.0" xmlns="http://www.w3.org/2000/svg" xmlns:xlink="http://www.w3.org/1999/xlink">
<style>/* <![CDATA[ */
	svg.railroad-diagram {
		background-color:hsl(30,20%,95%);
	}
	svg.railroad-diagram path {
		stroke-width:3;
		stroke:black;
		fill:rgba(0,0,0,0);
	}
	svg.railroad-diagram text {
		font:bold 14px monospace;
		text-anchor:middle;
	}
	svg.railroad-diagram text.label{
		text-anchor:start;
	}
	svg.railroad-diagram text.comment{
		font:italic 12px monospace;
	}
	svg.railroad-diagram rect{
		stroke-width:3;
		stroke:black;
		fill:hsl(120,100%,90%);
	}
	svg.railroad-diagram rect.group-box {
		stroke: gray;
		stroke-dasharray: 10 5;
		fill: none;
	}

/* ]]> */
</style><g transform="translate(.5 .5)">
<g>
<path d="M20 21v20m10 -20v20m-10 -10h20" /></g><g>
<path d="M40 31h0.0" /><path d="M367.0 31h0.0" /><path d="M40.0 31h20" /><g>
<path d="M60.0 31h71.0" /><path d="M276.0 31h71.0" /><g class="terminal ">
<path d="M131.0 31h0.0" /><path d="M185.0 31h0.0" /><rect height="22" rx="10" ry="10" width="54" x="131" y="20"></rect><text x="158" y="35">PLUS</text></g><path d="M185.0 31h10" /><path d="M195.0 31h10" /><g class="non-terminal ">
<path d="M205.0 31h0.0" /><path d="M276.0 31h0.0" /><rect height="22" width="71" x="205" y="20"></rect><text x="240.5" y="35">factor</text></g></g><path d="M347.0 31h20" /><path d="M40.0 31a10 10 0 0 1 10 10v10a10 10 0 0 0 10 10" /><g>
<path d="M60.0 61h66.75" /><path d="M280.25 61h66.75" /><g class="terminal ">
<path d="M126.75 61h0.0" /><path d="M189.25 61h0.0" /><rect height="22" rx="10" ry="10" width="62.5" x="126.75" y="50"></rect><text x="158" y="65">MINUS</text></g><path d="M189.25 61h10" /><path d="M199.25 61h10" /><g class="non-terminal ">
<path d="M209.25 61h0.0" /><path d="M280.25 61h0.0" /><rect height="22" width="71" x="209.25" y="50"></rect><text x="244.75" y="65">factor</text></g></g><path d="M347.0 61a10 10 0 0 0 10 -10v-10a10 10 0 0 1 10 -10" /><path d="M40.0 31a10 10 0 0 1 10 10v40a10 10 0 0 0 10 10" /><g class="non-terminal ">
<path d="M60.0 91h103.75" /><path d="M243.25 91h103.75" /><rect height="22" width="79.5" x="163.75" y="80"></rect><text x="203.5" y="95">INTEGER</text></g><path d="M347.0 91a10 10 0 0 0 10 -10v-40a10 10 0 0 1 10 -10" /><path d="M40.0 31a10 10 0 0 1 10 10v70a10 10 0 0 0 10 10" /><g class="non-terminal ">
<path d="M60.0 121h116.5" /><path d="M230.5 121h116.5" /><rect height="22" width="54" x="176.5" y="110"></rect><text x="203.5" y="125">REAL</text></g><path d="M347.0 121a10 10 0 0 0 10 -10v-70a10 10 0 0 1 10 -10" /><path d="M40.0 31a10 10 0 0 1 10 10v100a10 10 0 0 0 10 10" /><g>
<path d="M60.0 151h0.0" /><path d="M347.0 151h0.0" /><g class="terminal ">
<path d="M60.0 151h0.0" /><path d="M131.0 151h0.0" /><rect height="22" rx="10" ry="10" width="71" x="60" y="140"></rect><text x="95.5" y="155">LPAREN</text></g><path d="M131.0 151h10" /><path d="M141.0 151h10" /><g class="non-terminal ">
<path d="M151.0 151h0.0" /><path d="M256.0 151h0.0" /><rect height="22" width="105" x="151" y="140"></rect><text x="203.5" y="155">expression</text></g><path d="M256.0 151h10" /><path d="M266.0 151h10" /><g class="terminal ">
<path d="M276.0 151h0.0" /><path d="M347.0 151h0.0" /><rect height="22" rx="10" ry="10" width="71" x="276" y="140"></rect><text x="311.5" y="155">RPAREN</text></g></g><path d="M347.0 151a10 10 0 0 0 10 -10v-100a10 10 0 0 1 10 -10" /><path d="M40.0 31a10 10 0 0 1 10 10v130a10 10 0 0 0 10 10" /><g class="non-terminal ">
<path d="M60.0 181h99.5" /><path d="M247.5 181h99.5" /><rect height="22" width="88" x="159.5" y="170"></rect><text x="203.5" y="185">variable</text></g><path d="M347.0 181a10 10 0 0 0 10 -10v-130a10 10 0 0 1 10 -10" /></g><path d="M 367.0 31 h 20 m -10 -10 v 20 m 10 -20 v 20"></path></g></svg>
