<svg class="railroad-diagram" height="169" viewBox="0 0 346.5 169" width="346.5" xmlns="http://www.w3.org/2000/svg" xmlns:xlink="http://www.w3.org/1999/xlink">
<style>/* <![CDATA[ */
	svg.railroad-diagram {
		background-color:hsl(30,20%,95%);
	}
	svg.railroad-diagram path {
		stroke-width:3;
		stroke:black;
		fill:rgba(0,0,0,0);
	}
	svg.railroad-diagram text {
		font:bold 14px monospace;
		text-anchor:middle;
	}
	svg.railroad-diagram text.label{
		text-anchor:start;
	}
	svg.railroad-diagram text.comment{
		font:italic 12px monospace;
	}
	svg.railroad-diagram rect{
		stroke-width:3;
		stroke:black;
		fill:hsl(120,100%,90%);
	}
	svg.railroad-diagram rect.group-box {
		stroke: gray;
		stroke-dasharray: 10 5;
		fill: none;
	}

/* ]]> */
</style><g transform="translate(.5 .5)">
<g>
<path d="M20 30v20m10 -20v20m-10 -10h20" /></g><path d="M40 40h10" /><g class="non-terminal ">
<path d="M50 40h0.0" /><path d="M104.0 40h0.0" /><rect height="22" width="54" x="50" y="29"></rect><text x="77" y="44">term</text></g><path d="M104.0 40h10" /><g>
<path d="M114.0 40h0.0" /><path d="M306.5 40h0.0" /><path d="M114.0 40a10 10 0 0 0 10 -10v0a10 10 0 0 1 10 -10" /><g>
<path d="M134.0 20h152.5" /></g><path d="M286.5 20a10 10 0 0 1 10 10v0a10 10 0 0 0 10 10" /><path d="M114.0 40h20" /><g>
<path d="M134.0 40h0.0" /><path d="M286.5 40h0.0" /><path d="M134.0 40h10" /><g>
<path d="M144.0 40h0.0" /><path d="M276.5 40h0.0" /><g>
<path d="M144.0 40h0.0" /><path d="M212.5 40h0.0" /><path d="M144.0 40h20" /><g class="terminal ">
<path d="M164.0 40h0.0" /><path d="M192.5 40h0.0" /><rect height="22" rx="10" ry="10" width="28.5" x="164" y="29"></rect><text x="178.25" y="44">*</text></g><path d="M192.5 40h20" /><path d="M144.0 40a10 10 0 0 1 10 10v10a10 10 0 0 0 10 10" /><g class="terminal ">
<path d="M164.0 70h0.0" /><path d="M192.5 70h0.0" /><rect height="22" rx="10" ry="10" width="28.5" x="164" y="59"></rect><text x="178.25" y="74">/</text></g><path d="M192.5 70a10 10 0 0 0 10 -10v-10a10 10 0 0 1 10 -10" /><path d="M144.0 40a10 10 0 0 1 10 10v40a10 10 0 0 0 10 10" /><g class="terminal ">
<path d="M164.0 100h0.0" /><path d="M192.5 100h0.0" /><rect height="22" rx="10" ry="10" width="28.5" x="164" y="89"></rect><text x="178.25" y="104">+</text></g><path d="M192.5 100a10 10 0 0 0 10 -10v-40a10 10 0 0 1 10 -10" /><path d="M144.0 40a10 10 0 0 1 10 10v70a10 10 0 0 0 10 10" /><g class="terminal ">
<path d="M164.0 130h0.0" /><path d="M192.5 130h0.0" /><rect height="22" rx="10" ry="10" width="28.5" x="164" y="119"></rect><text x="178.25" y="134">-</text></g><path d="M192.5 130a10 10 0 0 0 10 -10v-70a10 10 0 0 1 10 -10" /></g><path d="M212.5 40h10" /><g class="non-terminal ">
<path d="M222.5 40h0.0" /><path d="M276.5 40h0.0" /><rect height="22" width="54" x="222.5" y="29"></rect><text x="249.5" y="44">term</text></g></g><path d="M276.5 40h10" /><path d="M144.0 40a10 10 0 0 0 -10 10v89a10 10 0 0 0 10 10" /><g>
<path d="M144.0 149h132.5" /></g><path d="M276.5 149a10 10 0 0 0 10 -10v-89a10 10 0 0 0 -10 -10" /></g><path d="M286.5 40h20" /></g><path d="M 306.5 40 h 20 m -10 -10 v 20 m 10 -20 v 20"></path></g></svg>
